<svg viewBox="0 0 32 29" fill="#ffffff" preserveAspectRatio="xMidYMid meet" xmlns="http://www.w3.org/2000/svg">
<path d="M30.1767 24.1222C30.2766 24.2372 30.458 24.1081 30.3818 23.9755L18.8392 3.94835L18.8339 3.95098L16.656 0.166415C16.5622 0.00312852 16.4132 -0.00652823 16.3335 0.00225062C16.2546 0.0110295 16.1135 0.0505343 16.0548 0.225234L12.9092 10.7265C12.4176 12.3708 13.6472 14.0273 15.3615 14.0273H18.514C20.3388 14.0273 22.0741 14.8166 23.2739 16.194L30.1767 24.1222Z"/>
<path d="M11.6639 11.3402L14.0746 3.3814C14.1178 3.24228 13.9226 3.15778 13.8483 3.2841L0.04664 26.9052C-0.0466434 27.0699 0.017273 27.1971 0.0880994 27.2756C0.158062 27.3541 0.279849 27.4335 0.458642 27.3593L0.499238 27.343L12.747 22.8921C14.2154 22.3587 14.8433 20.6483 14.0616 19.3092L12.234 16.176C11.3789 14.7097 11.1724 12.9609 11.6639 11.3402Z" fill="white"/>
<path d="M31.6813 28.9951H28.1219V29H1.72099C1.58593 29 1.55237 28.8177 1.67988 28.7729L14.1442 24.3415C15.473 23.8694 16.5896 22.9601 17.2984 21.7717L19.0056 18.9089C19.8462 17.499 21.8679 17.3086 22.9719 18.5361L31.9313 28.5002C32.0353 28.6288 31.9984 28.755 31.9674 28.8193C31.9347 28.8852 31.8558 28.9951 31.6813 28.9951Z"/>
</svg>
