<svg width="256" height="264" viewBox="0 0 256 264" fill="none" xmlns="http://www.w3.org/2000/svg">
<g clip-path="url(#clip0_343_13320)">
<path d="M251.931 207.706L243.701 203.1C243.701 203.1 244.334 210.873 242.228 224.829L236.737 221.02C236.737 221.02 232.888 233.445 225.46 241.088L220.493 235.401C220.493 235.401 194.916 255.903 154.523 260.77C136.845 263.937 119.16 263.937 101.464 260.77C97.4847 260.292 93.651 259.657 89.9711 258.908C89.9007 258.892 89.833 258.877 89.7626 258.861H89.747C56.1953 251.984 35.5024 235.401 35.5024 235.401L30.5272 241.088C23.0997 233.445 19.2504 221.02 19.2504 221.02L13.767 224.829C11.6534 210.873 12.2867 203.1 12.2867 203.1L4.05646 207.706C4.90607 195.86 10.8142 188.048 10.8142 188.048L2.58398 185.93C15.1796 170.562 19.9697 153.329 24.3272 134.203C9.47206 107.096 5.41427 82.1529 6.17005 57.0845L12.6255 60.8079C3.38408 41.3976 6.77208 29.0188 6.77208 29.0188L13.3969 33.0293C9.85777 14.3684 20.1677 3.39429 20.1677 3.39429C39.3413 16.3449 65.8433 10.0863 99.0171 60.8079C112.014 56.4266 127.995 57.1368 127.995 57.1368C127.995 57.1368 143.968 56.4266 156.965 60.8079C190.147 10.0863 216.649 16.3449 235.822 3.39429C235.822 3.39429 246.135 14.3684 242.593 33.0293L249.21 29.0188C249.21 29.0188 252.595 41.3976 243.364 60.8079L249.82 57.0845C250.576 82.1529 246.518 107.096 231.663 134.203C236.02 153.329 240.803 170.562 253.406 185.93L245.176 188.048C245.176 188.048 250.985 195.729 251.902 207.414C251.91 207.508 251.918 207.607 251.926 207.706H251.931Z" fill="#B3B8C4"/>
<path opacity="0.1" d="M24.3065 17.7048C34.7789 20.5757 42.0718 26.4927 47.5096 34.1921L30.1942 108.109C7.01763 60.8837 24.3065 17.7048 24.3065 17.7048ZM231.686 17.7048C231.686 17.7048 248.975 60.8837 225.799 108.109L208.483 34.1921C213.921 26.4927 221.214 20.5757 231.686 17.7048Z" fill="#2C2C2F"/>
<path d="M128.021 139.778C142.659 107.532 188.035 86.7796 208.968 144.295C212.246 153.305 217.622 161.392 224.648 167.873C234.729 177.178 248.336 192.155 251.906 207.84C251.914 207.934 251.922 208.033 251.93 208.135L243.7 203.51C243.705 203.568 244.325 211.369 242.228 225.333L236.736 221.508C236.736 221.508 232.886 233.985 225.459 241.662L220.492 235.949C220.492 235.949 194.915 256.537 154.522 261.427C136.845 264.61 119.16 264.61 101.464 261.427C97.4844 260.947 93.6505 260.31 89.9707 259.558C89.9003 259.543 89.8321 259.527 89.7617 259.511H89.7461C56.1944 252.605 35.502 235.949 35.502 235.949L30.5264 241.662C23.099 233.985 19.25 221.508 19.25 221.508L13.7666 225.333C11.6603 211.365 12.2819 203.564 12.2861 203.51L4.05566 208.135C7.52705 192.341 21.2406 177.239 31.3916 167.873C38.4178 161.392 43.7869 153.305 47.0654 144.295C68.006 86.7824 113.374 107.532 128.021 139.778ZM38.1582 28.199C40.9388 29.1834 63.4882 37.9828 73.4834 67.6228C73.3976 67.6789 51.4016 82.0657 37.876 108.109L37.8877 104.686C36.5153 108.217 35.2408 112.192 34.1826 116.626C26.6457 102.793 23.0437 86.2597 24.6699 66.1394V66.1375C24.6699 66.1375 21.3966 43.1676 34.4404 29.0447C34.4653 29.055 35.9147 29.657 38.1475 31.033L38.1582 28.199ZM217.842 31.033C220.076 29.6564 221.525 29.0546 221.549 29.0447C234.593 43.1676 231.319 66.1375 231.319 66.1375V66.1394C232.946 86.2597 229.344 102.793 221.808 116.626C220.75 112.193 219.475 108.22 218.103 104.689L218.115 108.109C204.58 82.0468 182.561 67.6582 182.507 67.6228C192.502 37.9823 215.052 29.1832 217.832 28.199L217.842 31.033Z" fill="white"/>
<path opacity="0.1" d="M127.968 260.206C157.311 260.206 201.368 246.049 219.101 228.414L226.453 238.106L236.736 221.022L242.319 224.537L243.7 203.103H246.833C246.833 203.103 245.027 193.52 239.223 187.189C235.642 223.563 174.726 248.576 127.994 248.576C81.2635 248.576 20.3471 223.563 16.7662 187.189C10.9623 193.52 9.15625 203.105 9.15625 203.105H12.2889L13.6701 224.539L19.2525 221.025L29.5364 238.109L36.8884 228.417C54.6181 246.051 98.6778 260.208 128.021 260.208" fill="#4791FF"/>
<path d="M18.4312 1.75944C19.2339 0.882475 20.5498 0.757325 21.4957 1.41765C28.0033 5.82243 35.976 8.08678 43.857 10.9928C51.8213 13.8545 59.6714 17.5092 66.6793 22.3473C73.7446 27.1385 80.0203 32.99 85.7174 39.3112C90.94 45.212 95.6676 51.5045 100.017 58.0163C106.694 56.0399 113.616 55.1575 120.55 54.8259C123.031 54.7188 125.458 54.6775 128.012 54.7585C137.452 54.5731 146.896 55.3563 155.968 58.0143C165.04 44.4684 175.734 31.5982 189.304 22.3473C196.312 17.5093 204.162 13.8545 212.127 10.9928C220.007 8.08683 227.979 5.82238 234.487 1.41765C235.675 0.587485 237.221 1.08869 237.963 2.2321L238.315 2.66374C239.845 4.61152 241.104 6.76536 242.152 8.99773C244.993 15.0343 246.064 21.7946 245.589 28.4264C246.895 27.6353 247.998 26.9662 248.005 26.9635C249.121 26.2877 250.57 26.646 251.245 27.7634C251.586 28.3168 251.636 29.0298 251.766 29.6198C251.956 30.7215 252.066 31.8417 252.133 32.946C252.519 40.5439 250.932 48.1028 248.302 55.2126C248.334 55.1942 248.623 55.0266 248.63 55.0221C250.131 54.1084 252.191 55.2619 252.199 57.0163C252.9 77.3561 249.898 97.9578 242.374 116.922C240.012 122.966 237.252 128.841 234.184 134.541C237.257 147.925 240.74 161.154 247.495 173.079C249.752 177.074 252.342 180.87 255.248 184.416C256.082 185.431 255.936 186.936 254.92 187.771H254.909C254.635 187.998 254.315 188.154 253.992 188.238C253.992 188.238 251.312 188.928 248.912 189.547C250.189 191.81 251.224 194.202 252.071 196.662C253.277 200.168 254.005 203.831 254.296 207.531C254.515 209.361 252.37 210.756 250.798 209.805C250.759 209.802 248.346 208.445 246.139 207.202C246.092 211.382 245.777 215.55 245.302 219.699C245.091 221.534 244.838 223.359 244.57 225.184C244.359 226.892 242.243 227.811 240.862 226.788C240.862 226.788 239.347 225.737 237.909 224.74C235.381 231.335 232.089 237.498 227.159 242.754C226.202 243.754 224.562 243.709 223.661 242.66C223.65 242.648 221.637 240.342 220.176 238.671C215.908 241.919 211.305 244.662 206.578 247.179C195.851 252.801 184.355 256.882 172.523 259.396C166.617 260.634 160.638 261.459 154.644 261.835C154.055 261.871 153.545 261.422 153.508 260.83C153.472 260.279 153.86 259.799 154.389 259.705C165.981 257.572 177.342 254.386 188.241 249.958C199.007 245.548 209.447 240.19 218.996 233.537C219.994 232.735 221.448 232.887 222.274 233.83C222.284 233.841 223.997 235.8 225.46 237.474C228.355 233.926 230.648 229.696 232.48 225.49C233.212 223.793 233.914 221.994 234.459 220.315C234.902 218.79 236.803 218.148 238.086 219.061C238.086 219.061 239.266 219.881 240.384 220.657C240.674 218.38 240.919 216.101 241.091 213.816C241.289 211.158 241.417 208.5 241.401 205.844C241.396 204.965 241.372 204.038 241.32 203.262C241.231 201.949 242.225 200.813 243.536 200.724C244.013 200.693 244.466 200.803 244.854 201.022C244.857 201.024 246.888 202.159 248.922 203.297C248.586 201.573 248.14 199.871 247.567 198.208C246.504 195.108 245.094 192.098 243.217 189.411C242.258 188.087 243.004 186.121 244.578 185.742C244.578 185.742 247.025 185.113 249.251 184.539C238.37 170.1 233.169 152.107 229.337 134.736C229.202 134.143 229.301 133.551 229.572 133.057C239.103 115.736 245.23 96.6311 246.895 76.9206C247.362 71.6933 247.546 66.4373 247.504 61.1735C246.042 62.0176 244.56 62.8726 244.545 62.8815C242.54 64.0721 240.2 61.8208 241.209 59.7868C243.484 54.9852 245.297 49.9746 246.374 44.8337C247.176 41.0034 247.586 37.1104 247.375 33.2253C247.369 33.1261 247.361 33.0295 247.353 32.9303C245.608 33.9871 243.848 35.0542 243.82 35.071C242.694 35.7524 241.232 35.3923 240.551 34.2643C240.233 33.7395 240.143 33.1443 240.25 32.5856C240.708 30.1522 240.942 27.69 240.942 25.2331C240.926 18.6403 239.058 11.9689 235.263 6.56413C228.589 10.572 220.937 12.8388 213.754 15.4733C202.204 19.5204 191.467 25.5413 182.423 33.818C173.302 42.074 165.723 51.8283 158.95 62.1208C158.348 63.0372 157.225 63.4031 156.232 63.0846C149.48 60.8679 142.315 59.9303 135.213 59.5934C132.816 59.4864 130.357 59.4506 128.033 59.529C128.007 59.5289 127.986 59.5232 127.961 59.5231C127.935 59.5205 127.908 59.526 127.879 59.526C118.464 59.3354 108.742 60.1757 99.7408 63.0817C98.6984 63.4159 97.5935 62.9933 97.0201 62.1188C90.2467 51.8262 82.668 42.0685 73.5465 33.8151C64.5005 25.5382 53.7649 19.5148 42.2144 15.4704C35.0372 12.836 27.3909 10.5722 20.7193 6.56706C16.8963 11.943 15.0586 18.6503 15.0299 25.2272C15.0299 27.6868 15.2645 30.1522 15.7232 32.5856C16.1401 34.5881 13.8364 36.1366 12.1529 35.069C12.1529 35.069 10.344 33.9718 8.61874 32.9274C8.61353 33.0266 8.60345 33.1232 8.59823 33.2223C8.15779 42.4314 10.8576 51.4766 14.7642 59.7848C15.7828 61.9022 13.388 64.0273 11.4283 62.8786C11.4283 62.8786 9.98676 62.0479 8.46737 61.1706C8.42567 66.4343 8.61123 71.6905 9.07772 76.9176C10.7404 96.6281 16.8703 115.733 26.401 133.054C26.6928 133.587 26.7603 134.185 26.6353 134.733C22.8069 152.102 17.602 170.1 6.72128 184.536L11.3971 185.74C12.6714 186.066 13.4373 187.366 13.109 188.64C13.0282 188.959 12.8877 189.238 12.7027 189.489C10.855 192.152 9.46069 195.134 8.4078 198.205C7.83446 199.868 7.38852 201.57 7.05233 203.294L11.1207 201.019C12.27 200.38 13.7188 200.792 14.36 201.941C14.5997 202.369 14.6914 202.84 14.6549 203.297C14.6028 204.054 14.582 204.98 14.5767 205.841C14.5585 210.283 14.8974 214.729 15.4029 219.147C15.4629 219.651 15.5308 220.156 15.5933 220.657C16.7029 219.885 17.8737 219.073 17.8912 219.061C19.176 218.132 21.0761 218.806 21.5191 220.315C22.0638 221.994 22.7654 223.79 23.4976 225.49C25.3323 229.699 27.6228 233.926 30.5182 237.474C31.9719 235.811 33.6715 233.866 33.7027 233.83C34.5445 232.858 35.9995 232.753 36.982 233.537C46.5283 240.19 56.9709 245.548 67.7369 249.958C78.6359 254.386 89.9963 257.572 101.588 259.705C102.172 259.809 102.56 260.37 102.454 260.955C102.355 261.498 101.867 261.869 101.333 261.835C95.3386 261.459 89.3575 260.631 83.4547 259.396C68.6726 256.234 54.3411 250.691 41.5162 242.626C39.5539 241.352 37.6458 240.08 35.7955 238.675C34.3408 240.344 32.33 242.645 32.317 242.66C31.4543 243.652 29.9502 243.756 28.9625 242.889C23.9432 237.633 20.6203 231.393 18.0689 224.738C16.6368 225.731 15.1274 226.778 15.1139 226.788C14.035 227.542 12.5494 227.276 11.8014 226.192C11.5903 225.884 11.457 225.532 11.4049 225.184C11.1365 223.359 10.8835 221.534 10.6725 219.699C10.1981 215.55 9.88246 211.383 9.83554 207.2C7.62304 208.437 5.21249 209.785 5.21249 209.785C4.07371 210.448 2.60947 210.048 1.96835 208.894C1.7286 208.463 1.63664 207.991 1.67831 207.534C1.8425 205.685 2.05626 203.836 2.44979 202.024C3.18212 198.387 4.39397 194.862 6.02011 191.531C6.35365 190.857 6.70087 190.2 7.06308 189.549L1.98397 188.241C0.712195 187.912 -0.0572405 186.614 0.271083 185.338C0.359683 184.993 0.526816 184.677 0.73788 184.419C3.64366 180.873 6.23392 177.079 8.49081 173.082C15.246 161.155 18.7287 147.927 21.8014 134.543C18.7339 128.843 15.9731 122.965 13.6119 116.924C6.08804 97.9598 3.08566 77.3589 3.78671 57.0192C3.79722 55.2621 5.86178 54.1104 7.35507 55.0241C7.35507 55.0241 7.48544 55.098 7.70175 55.2233C4.67344 47.0588 2.95839 38.2752 4.22226 29.6198L4.3287 29.0446C4.37038 28.8332 4.40256 28.6817 4.47811 28.3893C4.84572 26.8727 6.69273 26.1337 8.00351 26.9792C8.00351 26.9792 9.09626 27.6405 10.3941 28.4264C9.91981 21.7945 10.9909 15.0344 13.8316 8.99773C14.8793 6.76542 16.1379 4.61148 17.6676 2.66374L18.0191 2.2321C18.1442 2.08071 18.2488 1.95784 18.4312 1.75944ZM133.55 214.5C134.366 214.205 134.975 215.33 134.294 215.852C131.729 217.928 127.83 218.651 124.653 217.468C123.798 217.126 120.684 215.912 121.632 214.748C121.846 214.487 122.191 214.398 122.493 214.503L122.49 214.5C126.193 215.878 129.85 215.897 133.55 214.5ZM128.002 196.784C129.187 196.747 130.324 197.641 130.572 198.805C132.996 201.977 136.655 204.22 140.592 204.941C143.256 205.374 145.937 204.917 148.705 204.353C151.173 203.857 153.665 203.22 156.31 202.957H156.312C156.739 202.915 157.12 203.226 157.162 203.654C157.193 203.962 157.039 204.244 156.795 204.395C154.509 205.795 152.036 206.75 149.435 207.453C146.837 208.142 144.074 208.531 141.215 208.372C136.326 208.103 131.679 206.072 127.997 202.863C122.078 208.051 114.233 209.625 106.558 207.453C103.957 206.75 101.484 205.792 99.1988 204.395C98.5031 203.983 98.8779 202.861 99.6803 202.957C105.281 203.455 110.72 206.001 116.248 204.766C119.862 203.881 123.172 201.753 125.421 198.805C125.667 197.636 126.808 196.737 128.002 196.784ZM128.002 172.494C132.885 172.494 137.689 173.259 140.636 175.353C141.254 175.787 141.561 176.559 141.455 177.308H141.45C140.589 183.237 135.508 186.767 129.656 187.327C129.372 189.374 129.091 191.411 128.875 192.965L128.823 193.345C128.807 193.442 128.786 193.612 128.773 193.709H128.771V193.711C128.462 193.711 128.204 193.71 127.993 193.71C127.781 193.71 127.524 193.71 127.214 193.711V193.709H127.212C127.197 193.612 127.176 193.442 127.163 193.345C126.944 191.787 126.59 189.204 126.371 187.622L126.329 187.326C120.482 186.762 115.409 183.233 114.549 177.308C114.443 176.559 114.742 175.787 115.359 175.353C118.312 173.259 123.118 172.494 128.002 172.494ZM84.4195 140.799C93.8354 140.799 101.468 149.914 101.468 161.157C101.468 172.4 93.8354 181.515 84.4195 181.515C75.0034 181.515 67.3698 172.4 67.3697 161.157C67.3698 149.914 75.0034 140.799 84.4195 140.799ZM171.572 140.799C180.988 140.799 188.621 149.914 188.621 161.157C188.621 172.4 180.988 181.515 171.572 181.515C162.156 181.515 154.522 172.4 154.522 161.157C154.522 149.914 162.156 140.799 171.572 140.799ZM90.442 152.188C87.7691 152.188 85.6022 154.817 85.6021 158.06C85.6021 161.303 87.7691 163.932 90.442 163.932C93.1146 163.932 95.2818 161.303 95.2818 158.06C95.2818 154.817 93.1146 152.189 90.442 152.188ZM165.549 152.188C162.877 152.188 160.71 154.817 160.71 158.06C160.71 161.303 162.877 163.932 165.549 163.932C168.222 163.932 170.389 161.303 170.389 158.06C170.389 154.817 168.222 152.189 165.549 152.188ZM32.192 26.9303C34.1414 24.7972 36.6668 26.669 38.5875 27.7604C43.1142 30.455 47.1302 33.9406 50.6041 37.8805L52.6109 40.2878C52.9758 40.8074 54.5866 43.0063 54.9019 43.4606C55.7906 44.9514 56.9242 46.607 57.6773 48.1657C58.5556 49.7976 59.6394 52.1057 60.2857 53.8132C60.6167 54.6748 61.1436 55.8343 61.3678 56.7194C61.6754 57.7483 62.5066 60.1419 62.7047 61.1628H62.7066C62.9281 62.121 63.5043 64.6878 63.731 65.6774C64.0125 66.9255 63.2307 68.1679 61.985 68.4499C60.7915 68.7318 59.7438 68.0145 59.2486 66.9938C58.7457 66.1401 58.0893 65.3484 57.3648 64.6618C54.4408 61.8133 50.4192 60.5653 46.3824 60.2702C47.5187 62.5234 49.0172 64.602 50.732 66.4401C51.5581 67.346 52.4759 68.1656 53.4088 68.9645C54.3989 69.8131 54.5154 71.3064 53.6685 72.2985C53.1318 72.9459 52.4808 73.0248 51.7096 73.2936C50.8392 73.5965 49.9894 73.9755 49.1607 74.3932C46.969 75.5055 44.9774 77.0012 43.3199 78.8053L51.9986 80.0485C53.8045 80.1218 54.7374 82.4667 53.523 83.7721C50.9144 86.7277 48.5584 89.9783 46.4527 93.3307C41.6965 100.678 38.3033 108.772 34.7955 116.772C34.6574 117.104 34.2609 117.26 33.9351 117.098C33.6955 116.981 33.5625 116.731 33.5807 116.48C33.7057 114.83 33.891 113.182 34.149 111.543C34.9934 106.618 36.4577 101.809 38.4879 97.237C40.6327 92.511 43.2939 87.9413 46.7183 84.0221C43.0124 83.4921 38.7408 82.8815 38.7408 82.8815C37.4612 82.7327 36.546 81.5496 36.731 80.2702C36.778 79.9386 36.9012 79.6253 37.068 79.3591C38.2772 77.393 39.7392 75.6069 41.441 74.0612C43.3096 72.4085 45.3766 71.0116 47.61 69.9411C47.5135 69.8419 47.4167 69.7451 47.3228 69.6432C44.4926 66.6145 42.1832 63.048 40.8072 59.1159C40.1871 57.7165 40.5833 56.1264 42.1598 55.6432C44.2368 55.403 46.442 55.5306 48.5191 55.776C51.3546 56.1364 54.1953 57.0272 56.7232 58.4372C56.3792 57.4842 56.0171 56.5489 55.6314 55.7682C51.5424 46.2643 44.3596 37.8548 35.2408 32.8913C29.9713 39.5597 27.4744 47.985 26.359 56.3844C25.9185 59.5464 25.629 62.7952 25.4596 66.0251C25.4644 66.9463 24.1331 67.1265 23.8853 66.2497C20.4635 53.2573 22.8828 37.0402 32.192 26.9303ZM220.379 26.1862C221.599 25.6588 222.978 26.0027 223.815 26.9479C228.689 32.1856 231.545 39.0167 232.772 45.9333L232.777 45.9352C233.374 49.3243 233.666 52.7528 233.559 56.1784C233.447 59.5857 233.061 62.9461 232.11 66.2516C231.987 66.6772 231.542 66.9232 231.117 66.8005C230.763 66.6986 230.536 66.3747 230.536 66.0251C229.889 54.461 228.07 42.1264 220.753 32.8757C214.714 36.1107 209.57 41.0272 205.533 46.5339C204.978 47.3746 204.157 48.6358 203.596 49.4792C203.109 50.2574 202.006 52.3459 201.532 53.1813C200.948 54.411 200.354 55.813 199.781 57.0583C199.624 57.4395 199.447 57.9228 199.264 58.4372C200.072 57.9829 200.906 57.5777 201.751 57.2331C205.399 55.784 209.353 55.3928 213.247 55.5573C214.737 55.5521 215.84 57.0872 215.379 58.4997C214.07 62.6904 211.638 66.45 208.672 69.6432C208.576 69.7451 208.477 69.8441 208.38 69.946C208.571 70.0374 208.762 70.1267 208.955 70.2233C211.644 71.6019 214.133 73.4379 216.169 75.6833C217.224 76.7954 218.102 78.0642 218.925 79.3591C219.608 80.4296 219.293 81.8524 218.224 82.5339C217.919 82.7296 217.591 82.8423 217.253 82.8815C217.253 82.8815 212.999 83.4902 209.295 84.0202C212.725 87.9236 215.348 92.5268 217.505 97.237C219.533 101.809 221 106.618 221.844 111.543C222.102 113.182 222.288 114.833 222.413 116.48C222.439 116.827 222.178 117.133 221.829 117.159C221.547 117.18 221.299 117.015 221.195 116.77C217.398 108.049 213.64 99.2524 208.269 91.3698C206.494 88.7275 204.568 86.1403 202.467 83.7721C201.232 82.4431 202.207 80.1268 203.99 80.0485C204.034 80.0422 208.986 79.333 212.668 78.8053C210.379 76.3224 207.455 74.4241 204.276 73.2936C203.992 73.1893 203.669 73.0952 203.471 73.0378C201.683 72.5887 201.162 70.1081 202.58 68.9645C204.464 67.3901 206.166 65.6012 207.588 63.6012C208.336 62.5386 209.025 61.4294 209.614 60.2702C205.577 60.5652 201.55 61.8135 198.626 64.6647C197.753 65.4687 197.057 66.4397 196.461 67.4499C195.767 68.5255 194.334 68.8315 193.26 68.1374C192.424 67.5943 192.053 66.5991 192.259 65.6774C192.486 64.6722 193.062 62.1314 193.284 61.1628C193.474 60.1522 194.318 57.7352 194.621 56.7194C194.84 55.837 195.36 54.6643 195.702 53.8132C196.343 52.1109 197.443 49.7871 198.313 48.1657C199.066 46.6071 200.202 44.9488 201.088 43.4606C201.432 42.9645 203.012 40.8074 203.379 40.2878C208 34.5201 213.658 29.3795 220.379 26.1862ZM74.3492 108.894C77.5132 100.936 86.1449 95.7094 91.6178 98.9313C93.5876 100.091 94.7138 102.372 94.4508 104.646C93.5908 112.072 79.7025 107.876 74.3492 108.894ZM164.374 98.9313C169.847 95.7098 178.478 100.936 181.642 108.894C176.289 107.876 162.401 112.072 161.541 104.646C161.278 102.372 162.403 100.091 164.374 98.9313Z" fill="#282525"/>
<path opacity="0.47" d="M127.997 178.322C131.7 178.322 134.702 177.319 134.702 176.081C134.702 174.844 131.7 173.841 127.997 173.841C124.293 173.841 121.291 174.844 121.291 176.081C121.291 177.319 124.293 178.322 127.997 178.322Z" fill="white"/>
<path d="M246.765 124.885L235.618 123.78C205.978 112.415 168.747 112.955 145.862 129.266C143.386 131.036 140.324 131.778 137.301 131.446C135.14 131.206 132.365 131.06 129.224 131.237C126.084 131.06 123.308 131.206 121.148 131.446C118.117 131.778 115.062 131.036 112.579 129.266C89.694 112.952 52.4703 112.412 22.8226 123.78L11.6839 124.885L9.60156 148.684C9.60156 148.684 13.1485 150.037 14.2536 154.449C19.0906 185.875 32.2491 206.354 57.2369 211.26C60.1767 211.646 63.0591 211.839 65.892 211.839C93.7049 211.839 115.857 193.163 121.163 151.627C121.163 148.906 123.368 148.653 126.084 148.653H132.354C135.078 148.653 137.275 148.909 137.275 151.627C142.589 193.16 164.741 211.839 192.546 211.839C195.376 211.839 198.261 211.646 201.201 211.26C226.199 206.354 239.35 185.875 244.192 154.449C245.287 150.037 248.844 148.684 248.844 148.684L246.762 124.885H246.765ZM64.8626 202.555C42.6659 201.481 27.115 181.544 25.9656 154.018C25.9813 153.569 26.0047 153.115 26.0282 152.666C29.1816 126.331 87.2156 121.548 106.783 144.313C109.212 147.149 110.708 150.603 111.242 154.251C108.349 182.794 90.455 203.265 64.8626 202.555ZM193.591 202.555C167.999 203.265 150.105 182.797 147.212 154.251C147.744 150.603 149.24 147.149 151.671 144.313C171.238 121.548 229.272 126.331 232.426 152.666C232.449 153.115 232.472 153.569 232.488 154.018C231.339 181.544 215.79 201.479 193.591 202.555Z" fill="#F51B77" stroke="#231F20" stroke-miterlimit="10"/>
<path d="M22.4248 127.95C20.2628 138.231 17.9684 147.712 17.9551 147.767L13.4854 145.995H13.4883L15.3828 128.764L22.4248 127.95ZM242.95 128.764H242.952L244.848 145.995L240.378 147.767C240.367 147.723 238.069 138.237 235.908 127.95L242.95 128.764ZM135.484 134.642C135.484 134.642 139.789 134.506 139.654 135.989C139.519 137.472 138.117 142.052 138.117 142.052C138.117 142.052 135.753 140.841 135.216 140.841H123.113C122.576 140.841 120.233 142.042 120.213 142.052C120.213 142.052 118.81 137.472 118.675 135.989C118.543 134.508 122.837 134.642 122.845 134.642H135.484Z" fill="white" fill-opacity="0.4"/>
<path d="M21.0506 121.466C36.0742 115.756 53.1254 113.031 69.119 113.79C86.3188 114.608 101.401 119.284 112.713 127.347C114.683 128.75 117.153 129.38 119.662 129.104C122.383 128.804 125.188 128.726 127.994 128.877C130.803 128.723 133.605 128.801 136.329 129.104C138.836 129.38 141.3 128.751 143.265 127.348V127.347C154.58 119.284 169.662 114.606 186.865 113.79C202.856 113.033 219.909 115.756 234.93 121.466L245.764 122.541H245.765C246.89 122.654 247.777 123.552 247.876 124.679V124.68L249.958 148.481L250.078 149.852L249.793 149.565C249.557 150.151 249.089 150.632 248.473 150.875L248.474 150.876C248.399 150.907 246.063 151.889 245.268 154.921C242.722 171.352 237.908 184.572 230.926 194.185C223.394 204.554 213.124 211.079 200.422 213.573L200.421 213.572C200.365 213.584 200.31 213.591 200.277 213.596H200.276C197.251 213.993 194.237 214.195 191.316 214.195C175.554 214.195 162.398 208.51 152.557 197.856C142.727 187.212 136.236 171.645 133.714 151.928L133.713 151.921V151.913C133.683 151.616 133.664 151.462 133.626 151.354C133.602 151.287 133.579 151.254 133.505 151.216C133.397 151.16 133.191 151.101 132.789 151.063C132.395 151.024 131.859 151.009 131.124 151.009H124.854C124.588 151.009 124.321 151.004 124.08 151.001H124.079C123.38 150.992 122.923 151.092 122.649 151.243C122.41 151.375 122.298 151.55 122.277 151.815V151.817C122.275 151.843 122.27 151.882 122.264 151.927C119.745 171.644 113.257 187.211 103.427 197.856C93.5863 208.51 80.4285 214.195 64.662 214.195C61.7412 214.195 58.7273 213.993 55.702 213.596H55.701C55.6603 213.59 55.6113 213.583 55.5565 213.572V213.573C42.8569 211.079 32.5897 204.552 25.0585 194.186V194.185C18.0761 184.572 13.2614 171.354 10.7196 154.927C9.91128 151.876 7.56492 150.899 7.50865 150.876C6.55735 150.49 5.94142 149.517 6.03111 148.481L8.11314 124.68V124.679C8.21247 123.552 9.09913 122.654 10.2245 122.541L21.0506 121.466ZM233.547 125.985C219.051 120.425 202.547 117.766 187.087 118.502C170.737 119.277 156.535 123.677 145.993 131.19C143.083 133.272 139.464 134.194 135.812 133.792C133.344 133.519 130.688 133.448 128.135 133.592C128.04 133.599 127.948 133.6 127.853 133.593V133.592C125.62 133.466 123.309 133.504 121.113 133.698L120.179 133.792C116.527 134.191 112.907 133.272 109.987 131.19C99.445 123.677 85.2446 119.277 68.8973 118.502H68.8963C53.4358 117.766 36.9348 120.426 22.4335 125.986L22.4295 125.987C22.2386 126.059 22.0343 126.108 21.8231 126.128L21.8241 126.129L12.6268 127.041L10.8475 147.391C12.2846 148.376 14.2957 150.274 15.2137 153.544L15.3045 153.884L15.3055 153.89C15.3173 153.939 15.3348 154.015 15.3465 154.097H15.3475C17.8539 170.384 22.48 182.982 29.2899 192.061C36.086 201.12 45.0762 206.701 56.3807 208.939C59.1823 209.304 61.9696 209.49 64.662 209.49C78.4999 209.49 90.0622 204.835 99.0614 195.664C108.791 185.751 115.024 170.989 117.543 151.742L118.225 145.944V145.942C118.378 144.675 119.195 143.645 120.209 142.945C121.224 142.245 122.494 141.834 123.668 141.834H132.303C133.476 141.834 134.745 142.245 135.761 142.944C136.711 143.599 137.49 144.545 137.709 145.703L137.745 145.938V145.939L138.39 151.43C140.876 170.802 147.13 185.683 156.925 195.661C165.926 204.832 177.487 209.488 191.319 209.488C194.008 209.488 196.79 209.302 199.588 208.939C210.897 206.703 219.89 201.122 226.69 192.059C233.06 183.568 237.52 171.999 240.125 157.214L239.587 158.293L240.681 153.888L240.771 153.547C241.685 150.274 243.701 148.375 245.14 147.391L243.36 127.041L234.156 126.129V126.128C233.951 126.108 233.746 126.063 233.547 125.985ZM37.3661 128.618C47.0187 123.737 60.0083 121.646 72.5399 122.748C85.0687 123.85 97.2224 128.153 105.147 136.149H105.146C109.401 140.41 111.573 146.507 111.317 152.491V152.497C111.317 152.499 111.316 152.503 111.316 152.507C111.316 152.515 111.315 152.528 111.314 152.544C111.313 152.576 111.311 152.624 111.308 152.681C111.303 152.796 111.294 152.956 111.286 153.131C111.27 153.46 111.251 153.846 111.238 154.106C111.24 154.119 111.242 154.134 111.245 154.15C111.25 154.181 111.256 154.224 111.262 154.268L111.268 154.32L111.264 154.373C110.7 160.39 109.488 166.38 107.431 172.117C101.41 189.619 86.4396 203.63 67.4071 204.556L66.4969 204.59C52.3711 204.948 41.5742 198.659 34.2372 189.099C26.9109 179.552 23.0358 166.751 22.6854 154.038V154.016L22.6864 153.994C22.7467 152.99 22.8759 152.021 23.0604 151.089C23.1152 149.543 23.1904 148.001 23.3153 146.446V146.439L23.3163 146.431C24.2177 138.274 30.4647 132.065 37.3661 128.618ZM177.267 123.498C189.132 121.554 201.778 122.554 211.456 125.669H211.457C222.793 129.288 233.45 136.836 233.083 150.211L233.113 150.738C233.137 151.265 233.145 151.805 233.154 152.328C233.221 152.873 233.274 153.429 233.301 154L233.302 154.02L233.301 154.038C232.935 166.622 228.986 179.419 221.629 188.994C214.262 198.581 203.476 204.936 189.493 204.581C169.922 204.229 154.371 190.148 148.017 172.322C145.88 166.559 144.59 160.53 143.953 154.466L143.95 154.455L143.947 154.406L143.851 152.481L143.85 152.476C143.678 147.79 144.911 142.982 147.624 139.117L147.634 139.104C154.245 130.339 165.408 125.441 177.267 123.498ZM201.521 131.711C188.712 129.522 175.159 130.816 163.365 136.187L163.366 136.188C155.76 139.816 148.258 145.785 147.389 154.478V154.481C147.375 154.61 147.344 154.73 147.306 154.839C148.598 165.267 152.641 177.542 159.946 186.005L159.952 186.012L159.958 186.02C170.612 199.295 190.488 204.738 205.832 196.902C221.335 188.991 228.489 170.878 229.215 154.002C229.087 148.588 226.341 144.209 222.397 140.786C218.443 137.354 213.311 134.911 208.515 133.396V133.395C206.228 132.697 203.889 132.146 201.522 131.711H201.521ZM92.0653 137.028C80.2768 131.746 66.7059 130.71 53.996 132.814C48.2316 133.824 41.5795 135.841 36.2899 139.265C31.0105 142.682 27.1361 147.465 26.7743 154.023C27.0747 165.45 30.6801 177.282 37.3583 186.146C44.0317 195.002 53.7645 200.891 66.369 200.493H66.371C90.9725 199.812 105.537 177.797 107.883 154.898C107.86 154.837 107.839 154.771 107.822 154.703L107.781 154.478C107.63 152.93 107.268 151.469 106.737 150.091L106.46 149.465C106.365 149.262 106.267 149.061 106.165 148.864L105.877 148.356C102.833 143.154 97.5644 139.637 92.0653 137.029V137.028ZM123.674 145.304C123.268 145.304 122.751 145.471 122.321 145.728C122.11 145.853 121.939 145.99 121.823 146.116C121.7 146.25 121.675 146.333 121.673 146.353L121.663 146.433C122.32 146.315 122.976 146.291 123.561 146.291C123.664 146.291 123.766 146.293 123.861 146.294C123.958 146.295 124.049 146.296 124.138 146.296H124.142C124.374 146.299 124.612 146.302 124.856 146.302H130.92L130.923 146.299H131.13C132.011 146.299 133.186 146.3 134.331 146.57L134.306 146.346C134.304 146.329 134.28 146.248 134.157 146.114C134.042 145.988 133.871 145.852 133.66 145.727C133.23 145.471 132.713 145.304 132.307 145.304H123.674ZM203.59 126.262C194.98 124.564 184.325 124.424 174.451 126.604C164.611 128.775 155.61 133.237 150.145 140.687L150.096 140.763C149.546 141.586 149.081 142.456 148.693 143.36C148.7 143.352 148.708 143.344 148.715 143.335C148.752 143.289 148.79 143.244 148.828 143.198C154.723 135.98 164.011 131.629 173.878 129.454C183.749 127.278 194.262 127.266 202.686 128.783C211.481 130.276 221.917 134.031 228.061 141.09C226.223 137.303 223.061 134.332 219.277 132.028C214.494 129.117 208.76 127.298 203.59 126.263V126.262ZM70.3397 125.069C58.9697 124.35 47.3661 126.401 38.6141 130.981L38.6131 130.98C33.9901 133.446 29.8931 136.975 27.826 141.599C28.1809 141.197 28.5504 140.806 28.9325 140.428C35.0607 133.936 44.7255 130.602 53.1542 129.093L53.16 129.092C70.281 126.247 91.6488 128.757 104.723 141.397L104.731 141.406H104.73C105.313 141.963 105.862 142.555 106.378 143.173C105.086 140.309 103.071 137.763 100.505 135.7L100.498 135.695C92.7828 129.276 81.7118 125.789 70.3397 125.069Z" fill="#282525"/>
</g>
<defs>
<clipPath id="clip0_343_13320">
<rect width="256" height="264" fill="white"/>
</clipPath>
</defs>
</svg>
